<svg  xmlns="http://www.w3.org/2000/svg"
      xmlns:xlink="http://www.w3.org/1999/xlink"
      viewBox="0 0 100 100"
      width="800" height="800">
  <style>
    :root {
      --skin-tone: #fff2e4;
    }
    .element {
      fill: transparent;
      stroke-width: 3;
      stroke-linecap: round;
      color: #D79349;
      stroke: currentColor;
      opacity: 0;
    }
    .element.circle.active {
      fill: currentColor;
    }

    .element.active {
      opacity: 0.6;
    }

    .active .earth {
      color: gold;
    }
    .active .water {
      color: green;
    }
    .active .fire {
      color: red;
    }
    .active .air {
      color: #87cefa;
    }

    .animal {
      stroke-width: 0.5;
      stroke-linecap: round;
      stroke: #333;
      fill: var(--skin-tone);
      --light-fill: white;
      --accent-fill: white;
      opacity: 0;
      vector-effect="non-scaling-stroke"
    }
    .animal.active {
      opacity: 1;
    }
  
    .active .animal {
      stroke: black;
      --accent-fill: white;
    }
    .active .badger {
      fill: #424343;
      --light-fill: #eaeaeb;
    }
    .active .raven {
      fill: #8C7853;
    }
    .active .snake {
      fill: #C0C0C0;
    }
    .active .lion {
      fill: #D4AF37;
    }
  </style>

  <clipPath id="hufflepuff-clip">
    <rect x="0" y="0" width="50" height="50"/>
  </clipPath>

  <clipPath id="slytherin-clip">
    <rect x="50" y="0" width="50" height="50"/>
  </clipPath>
  
  <clipPath id="gryffindor-clip">
    <rect x="0" y="50" width="50" height="50"/>
  </clipPath>
  
  <clipPath id="ravenclaw-clip">
    <rect x="50" y="50" width="50" height="50"/>
  </clipPath>

  <defs>
    <line id="line" x1="0" y1="0" x2="50" y2="0"/>
    <path id="squiggle" d="M 0 0 q 6.25 4 12.5 0 q 6.25 -4 12.5 0 q 6.25 4 12.5 0 q 6.25 -4 12.5 0"/>

    <linearGradient id="wave-grad" x1="0" y1="0" x2="5%" y2="5%" spreadMethod="reflect">
      <stop offset="0%"  stop-color="white"/>
      <stop offset="100%" stop-color="black"/>
    </linearGradient>

    <filter id="wavy-filter">
      <feDisplacementMap id="displacement" in="StrokePaint" in2="wave-grad"/>
    </filter>

    <filter id="jaggy">
      <feTurbulence type="turbulence" baseFrequency="0.05"
          numOctaves="2" result="turbulence"/>
      <feDisplacementMap in2="turbulence" in="SourceGraphic"
          scale="50" xChannelSelector="R" yChannelSelector="G"/>
    </filter>
  </defs>

  <rect x="0" y="0" width="100" height="100" stroke-width="0" fill="var(--skin-tone)"/> 

  <g id="hufflepuff" class="quadrant" clip-path="url(#hufflepuff-clip)">
    <g id="earth1" class="element earth radial">
      <circle cx="50" cy="50" r="16"/>
      <circle cx="50" cy="50" r="26"/>
      <circle cx="50" cy="50" r="36"/>
      <circle cx="50" cy="50" r="46"/>
    </g>
    <g id="earth2" class="element earth linear">
      <line x1="3" y1="10" x2="50" y2="10"/>
      <line x1="3" y1="20" x2="50" y2="20"/>
      <line x1="3" y1="30" x2="50" y2="30"/>
      <line x1="3" y1="40" x2="50" y2="40"/>
    </g>
    <g id="earth3" class="element earth circle">
      <circle cx="50" cy="50" r="47"/>
    </g>

    <svg viewBox="0 32 30 30" x="0" y="0" width="50" height="50">
      <g id="badger1" class="animal badger head">
        <use xlink:href="badger1.svg#badger"/>
      </g>
    </svg>
    <svg viewBox="0 -20 100 100" x="0" y="0" width="50" height="50">
      <g id="badger1" class="animal badger body">
        <use xlink:href="badger2.svg#badger"/>
      </g>
    </svg>
  </g>

  <g id="slytherin" class="quadrant" clip-path="url(#slytherin-clip)">
    <g id="water1" class="element water radial">
      <path d="M 66 50 Q 63.83 47.81 65.22 45.06 Q 66.93 41.37 62.94 40.60 Q 59.90 40.10 59.40 37.06 Q 58.63 33.07 54.94 34.78 Q 52.19 36.17 50.00 34.00"/>
      <path d="M 76 50 Q 73.85 47.31 75.35 44.21 Q 77.37 40.42 73.43 38.72 Q 70.32 37.23 70.33 33.79 Q 70.51 29.49 66.21 29.67 Q 62.77 29.68 61.28 26.57 Q 59.58 22.63 55.79 24.65 Q 52.69 26.15 50.00 24.00"/>
      <path d="M 86 50 Q 83.87 47.04 85.45 43.75 Q 87.67 39.91 83.83 37.69 Q 80.81 35.63 81.18 32.00 Q 81.95 27.63 77.58 26.86 Q 74.04 25.96 73.14 22.42 Q 72.37 18.05 68.00 18.82 Q 64.37 19.19 62.31 16.17 Q 60.09 12.33 56.25 14.55 Q 52.96 16.13 50.00 14.00"/>
      <path d="M 96 50 Q 93.89 46.86 95.53 43.45 Q 97.88 39.58 94.14 37.04 Q 91.23 34.62 91.84 30.89 Q 93.01 26.52 88.70 25.13 Q 85.22 23.63 84.76 19.88 Q 84.65 15.35 80.12 15.24 Q 76.37 14.78 74.87 11.30 Q 73.48 6.99 69.11 8.16 Q 65.38 8.77 62.96 5.86 Q 60.42 2.12 56.55 4.47 Q 53.14 6.11 50.00 4.00"/>
    </g>
    <g id="water2" class="element water linear">
        <use xlink:href="#squiggle" transform="translate(50, 10) scale(0.94, 1)"/>
        <use xlink:href="#squiggle" transform="translate(50, 20) scale(0.94, 1)"/>
        <use xlink:href="#squiggle" transform="translate(50, 30) scale(0.94, 1)"/>
        <use xlink:href="#squiggle" transform="translate(50, 40) scale(0.94, 1)"/>
    </g>
    <g id="water3" class="element water circle">
      <circle cx="50" cy="50" r="47"/>
    </g>

    <svg viewBox="66 10 35 35" x="50" y="0" width="50" height="50">
      <g id="snake1" class="animal snake head">
        <use xlink:href="snake1.svg#snake"/>
      </g>
    </svg>  
  </g>

  <g id="gryffindor" class="quadrant" clip-path="url(#gryffindor-clip)">
    <g id="fire1" class="element fire radial">
      <use xlink:href="#squiggle" transform="translate(50, 50) rotate(108)"/>
      <use xlink:href="#squiggle" transform="translate(50, 50) rotate(126)"/>
      <use xlink:href="#squiggle" transform="translate(50, 50) rotate(144)"/>
      <use xlink:href="#squiggle" transform="translate(50, 50) rotate(162)"/>
    </g>
    <g id="fire2" class="element fire linear">
        <use xlink:href="#squiggle" transform="translate(10, 50) rotate(90) scale(0.94, 1)"/>
        <use xlink:href="#squiggle" transform="translate(20, 50) rotate(90) scale(0.94, 1)"/>
        <use xlink:href="#squiggle" transform="translate(30, 50) rotate(90) scale(0.94, 1)"/>
        <use xlink:href="#squiggle" transform="translate(40, 50) rotate(90) scale(0.94, 1)"/>
    </g>
    <g id="fire3" class="element fire circle">
      <circle cx="50" cy="50" r="47"/>
    </g>

    <svg viewBox="30 -3 38 38" x="0" y="50" width="50" height="50">
      <g id="lion1" class="animal lion head">
        <use xlink:href="lion1.svg#lion"/>
      </g>
    </svg>  
  </g>

  <g id="ravenclaw" class="quadrant" clip-path="url(#ravenclaw-clip)">
    <g id="air1" class="element air radial">
      <use xlink:href="#line" transform="translate(50, 50) rotate(18)"/>
      <use xlink:href="#line" transform="translate(50, 50) rotate(36)"/>
      <use xlink:href="#line" transform="translate(50, 50) rotate(54)"/>
      <use xlink:href="#line" transform="translate(50, 50) rotate(72)"/>
    </g>
    <g id="air2" class="element air linear">
      <line x1="60" y1="50" x2="60" y2="97"/>
      <line x1="70" y1="50" x2="70" y2="97"/>
      <line x1="80" y1="50" x2="80" y2="97"/>
      <line x1="90" y1="50" x2="90" y2="97"/>
    </g>
    <g id="air3" class="element air circle">
      <circle cx="50" cy="50" r="47"/>
    </g>

    <svg viewBox="55 0 45 45" x="50" y="50" width="50" height="50">
      <g id="raven1b" class="animal raven head">
        <use xlink:href="raven1.svg#raven"/>
      </g>
    </svg>
  </g>

  <g id="grid" stroke="black" stroke-width="1" >
    <line x1="50" y1="0" x2="50" y2="100"/>
    <line x1="0" y1="50" x2="100" y2="50"/>
  </g>

</svg>
