<svg  xmlns="http://www.w3.org/2000/svg"
      xmlns:xlink="http://www.w3.org/1999/xlink"
      viewBox="0 0 100 100" fill="transparent"
      width="800" height="800" stroke-linecap="round" stroke-width="0.5">
  <style>
  #lion {
    stroke: red;
    fill: #D4AF37;
    opacity: 0.5;
    --accent-fill: white;
  }
  </style>

  <image xlink:href="./lion2.png" x="0" y="0" width="100" height="100"/>
  <g id="lion">
    <path d="M 91.13 33.38 Q 90.25 33.88 90.00 34.63 Q 86.88 34.88 84.63 36.63 Q 80.25 38.00 80.00 36.75 Q 78.63 36.38 77.25 37.13 
             Q 79.13 32.75 84.38 31.13
             Q 86.75 31.37 88.75 31.50
             Q 89.50 32.13 91.50 32.75"/>
    <path d="M 33.38 64.38
             Q 35.00 65.13 34.00 66.75
             Q 31.87 69.13 34.00 71.38
             Q 36.00 72.38 38.88 74.75
             Q 40.25 75.38 43.75 74.63
             Q 45.63 72.88 46.13 71.50
             Q 44.25 68.25 41.38 70.00
             Q 40.38 69.25 39.38 69.38
             Q 38.13 67.75 40.63 66.13
             Q 42.13 64.63 42.88 61.38
             "/>
    <path d="M 41.75 70.50 Q 44.25 69.88 44.63 71.38 Q 45.13 72.50 44.00 74.63"/>
    <path d="M 41.25 70.88 Q 42.38 70.50 43.88 71.75 Q 44.88 73.25 41.50 75.00"/>
    <path d="M 40.00 71.75 Q 40.75 70.75 42.25 72.13 Q 42.25 74.13 38.63 74.25"/>
    <path d="M 81.25 48.50
             Q 84.63 54.13 84.88 56.75
             Q 87.13 61.38 88.38 66.50
             Q 89.63 69.25 92.75 72.13
             Q 95.25 72.25 95.25 77.75
             Q 94.75 79.13 96.50 82.50
             Q 97.50 84.38 95.00 84.75
             Q 92.38 84.75 91.13 85.88
             Q 88.25 85.50 88.63 84.50
             Q 87.93 82.88 90.50 82.63
             Q 89.75 82.63 89.13 83.13
             Q 88.25 81.25 90.63 81.38
             Q 89.00 79.75 91.75 81.00
             Q 91.75 81.88 91.25 82.63
             Q 92.38 80.13 90.13 77.38
             Q 88.50 76.50 88.25 74.00
             Q 85.50 72.00 84.63 70.50
             Q 80.25 69.13 76.88 65.00
             Q 72.50 64.13 70.38 60.38
             L 75.88 44.75
             "/>
    <path d="M 15.63 16.87
             Q 7.12 23.00 7.75 24.50
             Q 6.88 26.00 3.75 27.25
             Q 1.63 28.38 1.88 29.38
             Q 2.63 31.00 3.00 31.88
             C 2.25 36.63 7.38 35.25 7.75 37.00
             M 4.13 35.38
             Q 2.13 35.88 4.88 40.00
             Q 5.63 40.38 6.50 39.88
             Q 6.88 37.88 10.00 39.13
             L 18.75 40.25 L 25.12 17.87 L 15.63 16.87 L 15.63 16.87
             "/>
    <path d="M 44.38 36.38
             Q 48.00 38.13 58.88 36.38
             Q 70.25 35.88 86.13 46.50
             Q 89.25 48.50 96.50 45.75
             Q 101.00 40.13 92.38 34.63
             Q 91.13 33.88 88.75 34.25
             Q 86.00 32.75 90.38 32.38
             Q 98.25 33.88 100.00 40.88
             Q 99.75 49.25 91.00 50.13
             Q 80.38 50.00 77.75 48.13
             Q 79.00 49.75 75.63 54.75
             Q 73.00 60.12 68.38 65.38
             Q 66.38 66.63 68.38 68.50
             Q 70.50 73.00 73.38 74.75
             Q 73.63 75.75 72.88 76.63
             Q 71.75 79.00 68.00 83.38
             Q 68.75 84.88 67.13 85.00
             Q 64.75 85.25 62.25 86.00
             Q 61.38 86.75 59.38 85.25
             Q 59.75 83.38 61.38 83.00
             Q 59.75 83.38 59.38 85.25
             C 57.75 85.75 57.88 82.38 60.50 82.25
             Q 59.62 82.50 59.00 83.00
             Q 58.00 81.00 62.50 81.38
             Q 66.00 81.75 65.88 76.25
             Q 64.75 75.75 64.75 74.88
             Q 61.87 73.75 60.75 71.50
             Q 57.87 71.00 56.37 66.38
             Q 52.87 62.38 56.75 58.75
             Q 55.37 62.75 35.25 64.00
             Q 33.00 64.50 31.75 68.38
             Q 31.00 74.38 30.13 76.88
             Q 30.50 79.38 29.13 82.25
             Q 28.38 84.25 28.50 85.25
             Q 28.00 86.25 25.50 85.75
             Q 24.63 86.63 20.88 86.50
             Q 20.25 86.25 20.00 85.63
             Q 18.00 84.75 18.88 83.50
             Q 19.63 83.13 20.13 82.13
             Q 20.63 80.50 22.50 81.13
             Q 22.13 80.13 24.50 81.13

             Q 25.12 79.75 25.00 78.00
             Q 24.13 76.25 24.88 72.88
             Q 24.00 67.63 23.63 62.25
             L 20.00 50.50 L 32.13 33.75
             "/>
    <path d="M 20.00 85.63 Q 19.88 83.50 20.88 84.00 Q 20.13 82.13 24.25 82.75"/>
    <path d="M 20.00 83.25 Q 19.38 81.13 22.50 82.13"/>
    <path d="M 24.50 81.13 Q 24.25 81.75 23.75 82.13"/>
    <path d="M 10.25 21.13
             Q 6.88 21.00 7.88 18.63
             Q 9.13 16.50 10.25 17.63
             Q 10.38 15.63 12.50 15.25
             Q 14.37 15.38 14.75 14.12
             Q 15.63 13.25 16.38 13.38
             Q 15.88 14.12 15.88 14.50
             Q 18.00 12.63 19.25 13.88
             Q 20.50 14.25 22.50 13.75
             Q 21.50 14.12 21.63 14.75
             Q 24.88 13.50 27.13 16.50
             Q 27.88 18.13 29.50 17.63
             Q 29.50 18.25 29.88 18.50
             Q 32.88 19.63 33.38 23.50
             Q 33.63 25.00 36.25 24.13
             Q 37.00 24.00 37.13 24.88
             Q 36.13 24.75 35.63 25.50
             Q 37.63 26.88 35.50 28.75
             Q 35.00 30.38 38.50 29.63
             Q 38.50 30.88 36.75 31.75
             Q 42.25 32.50 41.75 34.75
             Q 43.75 35.13 44.38 36.38

             Q 42.75 38.00 37.13 37.50
             Q 37.75 41.75 31.00 41.63
             Q 33.38 48.38 24.63 50.63
             Q 21.25 53.50 23.25 58.00
             Q 24.75 65.38 22.50 66.63
             Q 22.50 65.75 22.00 65.75
             Q 22.75 63.38 21.63 61.88
             Q 19.88 62.63 17.75 60.25
             Q 16.38 56.13 15.00 57.88
             Q 14.00 55.38 12.13 54.13
             Q 8.43 50.25 11.75 46.50
             Q 11.00 46.63 9.88 46.75
             Q 10.88 46.25 11.13 45.88
             Q 9.75 44.75 8.75 41.88
             Q 8.13 42.13 8.63 43.25
             Q 7.38 42.63 8.13 41.38
             Q 7.12 40.13 8.13 39.13

             Q 10.25 38.38 12.13 37.75
             Q 12.38 35.25 14.63 34.25
             Q 15.63 31.50 15.13 30.38
             Q 16.50 28.88 18.13 27.88
             Q 17.88 25.12 19.25 24.37
             L 19.75 24.62
             Q 23.50 20.12 18.88 17.87
             Q 17.25 18.75 17.63 20.62
             Q 16.00 21.12 15.75 22.62
             Q 15.88 20.25 10.25 21.13
             "/>
    <path d="M 3.00 31.88 Q 4.00 30.00 5.00 29.88 Q 3.88 30.00 2.13 29.50" fill="black"/>
    <circle cx="11.38" cy="26.75" r="0.9" fill="var(--accent-fill)"/>
    <circle cx="11.08" cy="26.65" r="0.2" fill="black"/>
    <path d="M 10.38 25.87 C 12.50 25.87 13.38 27.88 14.75 27.75"/>
    <path d="M 9.38 28.00 Q 9.88 27.50 10.63 27.38"/>
    <path d="M 9.50 23.87 Q 8.00 26.62 10.87 25.50"/>
    <path d="M 18.63 19.50 Q 19.00 18.13 20.50 20.13 Q 20.38 21.88 20.13 22.63 
             Q 19.63 22.63 19.00 23.00 Q 18.75 22.63 18.25 22.50 
             Q 18.75 22.13 19.00 21.75 Q 18.88 21.13 18.38 21.00 Q 19.13 20.50 18.63 19.50" fill="black"/>
  </g>
</svg>
