<svg  xmlns="http://www.w3.org/2000/svg"
      xmlns:xlink="http://www.w3.org/1999/xlink"
      viewBox="0 0 100 100" fill="transparent"
      width="800" height="800" stroke-linecap="round" stroke-width="0.5">
  <style>
  #lion {
    stroke: red;
    fill: #D4AF37;
    opacity: 0.5;
    --accent-fill: white;
  }
  </style>

  <image xlink:href="./lion1.jpg" x="0" y="0" width="100" height="100"/>
  <g id="lion">
    <path d="M 48.00 17.75 Q 46.63 15.25 44.50 15.75 C 43.38 14.12 31.50 25.12 32.88 14.63 Q 29.25 23.88 42.63 17.88 Q 44.13 16.88 44.50 19.25"/>

    <path d="M 38.88 15.00 Q 39.13 16.50 40.38 17.25 Q 39.75 15.63 40.38 14.63" fill="var(--accent-fill)"/>
    <path d="M 41.25 19.88 Q 40.63 18.50 41.50 17.50 Q 42.00 18.88 42.88 19.75" fill="var(--accent-fill)"/>
    <path d="M 56.13 6.25 Q 59.13 7.25 60.50 9.50 Q 62.13 14.00 66.00 16.63 Q 64.75 17.25 63.50 16.75 C 65.50 19.37 64.38 19.88 64.75 20.75
             C 63.88 19.63 62.13 20.38 60.75 18.25 C 61.12 20.63 59.38 21.38 59.88 22.00 Q 57.38 21.13 57.38 19.00 C 57.38 22.38 54.87 22.25 55.25 23.25
             Q 53.37 22.38 53.37 20.13 C 52.88 22.50 50.75 22.50 50.88 24.00 Q 48.50 22.63 49.75 20.63 C 48.50 22.75 46.50 23.00 46.63 24.00
             Q 44.75 21.88 46.25 20.38 L 48.63 15.88 L 48.13 9.50 L 53.25 5.63"/>
    <path d="M 49.38 11.25 Q 52.00 18.50 46.25 20.38 Q 43.63 19.25 43.45 22.20 Q 42.00 20.13 42.25 22.38 Q 40.50 21.63 41.88 20.13 L 40.50 20.63 
             Q 40.38 19.00 42.13 19.00 Q 48.38 18.75 47.63 16.00 Q 47.38 12.75 44.25 13.38 Q 42.13 16.75 39.88 15.75 Q 38.75 16.38 38.25 16.00
             L 38.63 15.63 Q 37.00 14.88 38.25 13.50 Q 36.25 12.63 38.63 11.88 Q 38.75 10.13 41.00 10.13 Q 41.00 7.75 43.75 7.38 Q 45.63 7.50 46.38 5.38
             L 52.50 4.63 Q 54.13 6.13 56.75 5.63 Q 55.38 7.25 52.75 7.00 Q 54.87 6.88 56.00 7.63 Q 53.87 9.25 51.38 8.75 Q 52.88 9.13 54.25 9.25 Q 52.50 11.75 49.38 11.25"/>
    <path d="M 50.88 5.50 L 50.00 2.00 Q 49.63 3.00 48.50 3.50 Q 47.38 4.88 48.25 6.25"/>
    <path d="M 50.00 2.00 Q 52.00 4.63 50.63 6.13 Q 48.88 6.13 49.38 4.63 Q 49.88 3.75 50.00 2.00"/>
    <path d="M 45.00 9.13 L 43.00 9.13 A 0.85 0.75 190 1 0 44.00 10.50 Z" fill="var(--accent-fill)"/>
    <circle cx="43.38" cy="9.8" r="0.25"/>
    <path d="M 39.38 12.63 Q 39.88 11.75 41.25 11.38"/>
  </g>
</svg>
