<svg  xmlns="http://www.w3.org/2000/svg"
      xmlns:xlink="http://www.w3.org/1999/xlink"
      viewBox="0 0 100 100" fill="transparent"
      width="800" height="800" stroke-linecap="round" stroke-width="0.5">
  <style>
  #raven {
    stroke: yellow;
    fill: #8C7853;
    opacity: 0.5;
    --accent-fill: white;
  }
  </style>

  <image xlink:href="./raven2.jpg" x="0" y="0" width="100" height="100"/>
  <g id="raven">
    <path d="M 32.88 13.88 
             Q 37.50 15.00 38.25 17.25
             Q 45.88 18.00 47.63 22.13
             Q 36.88 19.38 45.63 21.88
             Q 42.63 23.00 35.13 23.00
             L 26.50 25.25 L 28.88 13.63
             "/>
    <path d="M 47.63 22.13 Q 36.88 19.38 32.63 20.50"/> 

    <path d="M 19.62 79.50 Q 17.62 79.38 17.25 80.25 Q 17.50 78.50 19.12 78.63" fill="var(--accent-fill)"/> 
    <path d="M 21.37 81.00 Q 19.12 80.88 19.12 82.00 Q 19.00 80.13 21.37 80.00" fill="var(--accent-fill)"/> 
    <path d="M 20.88 78.75 Q 21.88 76.25 23.75 77.63 Q 26.38 78.38 28.63 78.00 L 24.38 79.63"/> 
    <path d="M 22.25 80.13 Q 18.50 79.75 19.00 78.75 Q 19.13 77.75 20.63 78.13 Q 24.25 79.38 28.50 78.25 L 27.38 80.25"/> 
    <path d="M 37.50 70.13
             Q 35.88 70.63 35.00 71.88
             Q 34.25 72.25 33.00 75.13
             Q 32.13 76.75 30.75 78.75
             Q 31.25 79.50 32.75 79.50
             Q 35.25 78.88 35.88 79.88
             L 29.88 81.88 L 26.75 81.00  
             Q 22.50 80.38 22.13 81.13
             Q 20.63 81.13 21.00 79.88
             Q 21.63 79.25 22.38 79.63
             Q 24.63 79.88 26.63 79.13
             Q 31.87 74.00 33.38 68.50
             Q 32.13 67.75 31.62 65.88
             "/>

    <path d="M 25.12 82.75 Q 24.00 81.00 26.75 81.13 L 27.38 82.50" fill="var(--accent-fill)"/> 
    <path d="M 44.50 82.25 Q 46.25 82.25 48.00 83.25 Q 47.50 81.88 44.75 81.25" fill="var(--accent-fill)"/> 
    <path d="M 28.88 84.75 Q 27.13 85.38 26.75 87.63 Q 25.37 84.75 28.50 83.75" fill="var(--accent-fill)"/> 
    <path d="M 25.50 83.75 Q 23.75 83.75 23.25 84.88 Q 22.63 82.38 25.12 82.63" fill="var(--accent-fill)"/> 
    <path d="M 26.38 82.25
             Q 26.38 81.63 26.63 81.13
             Q 28.38 80.00 30.63 81.00
             Q 33.38 81.38 36.38 80.00
             L 35.00 82.75 L 27.63 83.00
             "/>
    <path d="M 29.63 82.88
             Q 26.63 84.25 25.25 83.75
             Q 24.38 81.88 27.13 81.88
             Q 28.88 82.38 32.25 82.63
             " />
    <path d="M 32.88 13.88 
             Q 29.38 15.25 30.13 22.00
             Q 32.38 23.13 35.13 23.00
             Q 33.88 25.75 38.00 28.00
             Q 38.88 28.75 39.25 29.63
             Q 41.13 30.00 41.38 30.63
             Q 48.00 34.25 48.63 35.25
             Q 48.25 35.00 48.00 35.25
             Q 52.13 37.50 52.75 38.38
             Q 52.50 38.50 52.13 38.75
             Q 56.38 40.38 57.25 41.25
             Q 56.25 41.25 54.50 41.13
             Q 57.00 43.25 57.88 44.88
             Q 64.25 48.50 67.25 51.75
             Q 72.63 55.50 73.00 56.25
             Q 71.75 56.25 69.25 55.38 
             C 71.00 58.38 77.75 61.00 78.25 63.00
             Q 77.50 63.00 76.50 62.75
             Q 90.63 71.00 91.25 71.88
             Q 90.00 71.88 82.00 69.38
             Q 88.75 75.13 89.13 76.38
             Q 87.50 75.88 67.13 66.88
             Q 69.63 70.13 70.13 71.00
             Q 69.63 71.25 69.13 71.13
             Q 70.50 73.13 74.25 75.25
             L 74.00 75.75
             Q 86.50 84.38 87.25 85.88
             Q 86.13 85.63 78.50 81.88
             Q 78.63 82.63 78.88 83.38
             Q 77.75 83.00 72.75 80.75
             L 72.63 81.25
             Q 71.88 81.00 64.50 76.50
             Q 64.75 77.38 64.75 77.88
             Q 64.13 78.25 51.13 70.63
             Q 50.13 73.13 47.13 71.38
             Q 45.63 72.50 43.75 72.25 
             Q 41.50 73.25 38.75 80.00
             Q 38.63 81.00 40.75 81.13
             Q 44.38 80.38 45.00 81.38 
             Q 44.63 81.75 44.63 82.25
             Q 43.25 83.13 40.88 82.38
             Q 39.50 82.75 38.38 82.25
             Q 36.13 83.88 34.50 83.75
             Q 33.63 83.88 32.50 84.13
             Q 31.62 85.25 28.63 84.88
             Q 28.50 84.25 28.25 84.00
             Q 29.75 81.75 32.25 82.50
             Q 32.88 82.00 34.00 82.00
             Q 37.00 79.00 39.50 73.13
             Q 39.63 71.75 39.38 71.13
             Q 38.50 70.75 37.50 70.13
             Q 35.50 68.13 31.75 66.75
             Q 29.88 65.50 27.00 62.50
             Q 26.25 62.25 25.62 61.25
             Q 24.25 61.25 21.00 56.75
             Q 20.63 57.00 20.88 57.38
             Q 19.25 58.13 17.13 51.75
             Q 16.88 51.75 16.75 52.25
             Q 15.50 50.25 15.88 49.75
             Q 15.63 49.50 15.50 49.75
             Q 15.00 49.25 15.00 47.00
             Q 14.75 46.63 14.63 47.25
             Q 13.50 42.25 14.00 40.63
             Q 11.75 39.75 13.38 31.50
             L 13.13 31.25 
             Q 13.13 30.25 13.50 29.38
             L 13.13 29.13
             Q 12.88 28.75 13.88 26.00
             Q 14.00 22.50 15.25 21.13
             Q 15.00 21.13 14.25 21.75
             Q 13.88 19.25 16.25 17.13
             L 16.00 17.00
             Q 18.88 11.13 23.38 11.63
             L 23.25 11.13
             Q 30.38 10.50 32.88 13.88
             "/>
    <path d="M 67.13 66.88
             Q 63.00 64.63 61.63 63.00 
             Q 59.75 63.88 51.88 60.75
             Q 53.37 62.75 53.63 63.75
             Q 52.13 64.00 47.50 61.88 
             Q 48.00 63.13 47.88 64.00
             Q 41.50 60.88 36.25 56.38
             Q 34.13 56.38 29.88 52.25
             Q 29.88 53.25 29.38 53.87
             Q 28.25 53.00 25.12 46.25
             Q 22.75 46.13 20.88 39.38
             Q 20.13 38.63 20.00 33.88
             "/>
    <ellipse cx="26.50" cy="17.00" rx="1.9" ry="1.65" fill="var(--accent-fill)"/>
    <circle cx="26.50" cy="16.88" r="1.0" fill="black"/>
  </g>
</svg>
