<svg  xmlns="http://www.w3.org/2000/svg"
      xmlns:xlink="http://www.w3.org/1999/xlink"
      viewBox="0 0 100 100" fill="transparent"
      width="800" height="800" stroke-linecap="round" stroke-width="0.5">
  <style>
  #raven {
    stroke: yellow;
    fill: #8C7853;
    opacity: 0.5;
  }
  </style>

  <image xlink:href="./raven1a.jpg" x="0" y="0" width="100" height="100"/>
  <g id="raven">    <path d="M 60.88 21.25 
             Q 58.88 22.50 58.75 26.13
             Q 62.00 25.25 63.88 23.50
             Q 63.38 25.87 64.00 28.75
             Q 66.88 27.25 68.63 25.12
             Q 69.00 28.00 70.63 30.25
             Q 72.63 28.75 72.88 25.62
             Q 73.75 28.63 76.25 31.13
             Q 77.63 28.38 76.00 24.50
             L 70.38 18.00 Z"/>
    <path d="M 60.88 21.25 C 67.13 1.25 81.00 8.13 81.88 11.00 L 77.00 16.25 L 77.00 19.13 Q 75.00 20.38 76.00 24.50"/>


    <path d="M 79.50 14.37 Q 85.13 16.50 91.00 17.63 Q 81.88 17.63 77.25 16.63"/>
    <path d="M 77.00 19.13 C 80.25 20.13 89.13 19.50 95.63 20.50 C 91.50 18.00 81.13 17.50 77.00 16.25"/>
    <path d="M 77.00 19.13 
             Q 76.25 13.50 82.25 11.38 
             Q 87.00 10.63 90.75 13.75
             Q 97.13 16.13 97.63 19.88 
             Q 94.25 16.50 89.88 16.38
             Q 83.63 16.13 82.88 15.75
             Q 78.13 15.13 77.13 17.13"/>

    <path d="M 72.13 12.00 Q 70.13 12.63 70.13 12.75 Q 71.88 12.38 72.25 12.88" fill="black"/>
    <circle cx="74.13" cy="12.25" r="2" fill="white"/>
    <circle cx="74.38" cy="12.25" r=".5" fill="black"/>  </g>
</svg>
