<svg  xmlns="http://www.w3.org/2000/svg"
      xmlns:xlink="http://www.w3.org/1999/xlink"
      viewBox="0 0 100 100" fill="transparent"
      width="800" height="800" stroke-linecap="round" stroke-width="0.5">
  <style>
  #raven {
    stroke: black;
    fill: #8C7853;
    --accent-fill: white;
  }
  </style>

  <image xlink:href="./raven1b.jpg" x="0" y="0" width="100" height="100"/>
  <g id="raven">
    <path d="M 65.63 25.50 Q 72.13 25.50 74.38 24.25 Q 70.50 18.88 65.50 22.63 Q 62.00 24.25 65.63 25.50"/>
    <path d="M 66.50 18.88 Q 79.50 20.13 77.00 25.62 Q 76.25 26.63 75.63 25.75 Q 74.13 22.00 65.50 22.63 Q 62.75 20.00 66.50 18.88"/>
    <path d="M 49.00 27.00 Q 55.63 10.13 66.50 18.88 Q 65.00 20.63 65.50 22.63 Q 64.25 24.25 65.63 25.50 Q 64.25 28.63 62.63 29.38 Q 56.13 31.62 49.00 27.00"/>
    <path d="M 49.00 27.00 Q 46.13 29.50 45.88 33.75 Q 50.50 32.88 52.63 28.63 Q 50.50 33.25 51.88 36.00 Q 55.75 34.25 56.38 29.63 Q 55.63 34.38 58.00 36.63 Q 61.25 34.50 60.00 29.63 Q 60.62 35.00 63.25 36.38 Q 65.13 33.38 62.63 29.38"/>
    <circle cx="59.25" cy="21.8" r="2.25" fill="var(--accent-fill)"/>
    <circle cx="59.25" cy="21.8" r="0.78" fill="black"/>
  </g>
</svg>
